# xmcd CD database file
#
# Track frame offsets:
#	150
#	33680
#	60962
#	81260
#	93342
#	132241
#	171884
#	196169
#	230021
#	260315
#	284904
#	302715
#
# Disc length: 4261 seconds
#
# Revision: 0
# Processed by: cddbd v1.5.2PL0 Copyright (c) Steve Scherf et al.
# Submitted via: CDex 1.70beta1
#
DISCID=a710a30c
DTITLE=Various Artist - Trans Tasman - NZ Jazz
DYEAR=2004
DGENRE=Jazz
TTITLE0=Roger Manins - Project Shoint - Norwegian Bush
TTITLE1=Rick Robertson - Baecastuff - The Essence
TTITLE2=Aron Ottignon Trio - The Ambo
TTITLE3=Cameron Deyell - The Knife Fighter
TTITLE4=Jeff Henderson Trio - Head on the Tracks
TTITLE5=Mike Nock Trio - Strata
TTITLE6=CL - BOB - Shallop
TTITLE7=Gerard Masters Trio - The Fall of No. 19
TTITLE8=Mathew Ottignon Sextet - Bad Babysitter
TTITLE9=The Norman Meehan Quartet - Good Friday
TTITLE10=Jann Rutherford Trio - And a Good Time was had by All
TTITLE11=Derrick - Masters Duo - West Coast Ballad
EXTD=YEAR: 2004
EXTT0=
EXTT1=
EXTT2=
EXTT3=
EXTT4=
EXTT5=
EXTT6=
EXTT7=
EXTT8=
EXTT9=
EXTT10=
EXTT11=
PLAYORDER=
